<svg width="70" height="12" viewBox="0 0 70 12" fill="none" xmlns="http://www.w3.org/2000/svg">
<path fill-rule="evenodd" clip-rule="evenodd" d="M9.71591 0.33965C9.71591 0.33965 11.7913 0.825162 12.1411 2.68747C12.6261 5.27007 11.171 5.97442 11.171 5.97442C11.171 5.97442 12.8686 7.14834 12.1411 9.26138C11.5086 11.0981 9.71591 11.6092 9.71591 11.6092H1.95513C1.53158 11.6092 1.22941 11.4817 0.929907 11.1918C0.630406 10.9019 0.499999 10.6105 0.5 10.2005V1.74834C0.500005 1.33831 0.630407 1.04698 0.929907 0.757041C1.22941 0.467105 1.53158 0.339657 1.95513 0.33965C4.86275 0.339626 9.707 0.33965 9.71591 0.33965ZM3.29439 7.2266V8.68746H9.31308V7.2266H3.29439ZM3.29439 4.51356H9.31308V3.05269H3.29439V4.51356Z" fill="#17223B"/>
<path d="M50.0452 4.38262C50.0452 3.29516 49.5806 2.41515 48.7422 1.76394C48.2495 1.38117 47.7508 1.35653 45.9611 1.35654C45.0857 1.35654 44.5663 1.35771 44.1428 1.41646C43.7558 1.47014 43.4463 1.57325 43.0216 1.80002C42.1833 2.38031 41.8048 3.02065 41.6206 3.77304C41.424 4.57632 41.447 5.49857 41.447 6.67827V11.4783C41.447 11.7664 41.2064 12 40.9097 12C40.6129 12 40.3723 11.7664 40.3723 11.4783V6.67827C40.3723 5.56235 40.3416 4.4848 40.5748 3.53174C40.8188 2.53513 41.3483 1.66755 42.4273 0.929978L42.4509 0.914081L42.4758 0.900426C43.0061 0.614382 43.4446 0.459341 43.9908 0.383579C44.5077 0.311884 45.1168 0.313068 45.9611 0.313063C47.6105 0.313053 48.5628 0.288329 49.4135 0.949135C50.4966 1.79043 51.1199 2.9657 51.1199 4.38262C51.1199 5.77571 50.5164 7.02097 49.3388 7.65612C48.5569 8.07787 47.8243 8.34783 46.4984 8.34783H43.1667C42.8699 8.34783 42.6293 8.11424 42.6293 7.82609C42.6293 7.53795 42.8699 7.30436 43.1667 7.30436H46.4984C47.6175 7.30436 48.1722 7.09168 48.817 6.74389C49.5739 6.33558 50.0452 5.49393 50.0452 4.38262Z" fill="#17223B"/>
<path d="M52.5724 11.4157V4.28314C52.5724 2.77143 54.0191 0.250475 57.1939 0.250475C57.4907 0.250475 57.7313 0.484065 57.7313 0.772213C57.7313 1.06036 57.4907 1.29395 57.1939 1.29395C54.7139 1.29395 53.6472 3.24427 53.6472 4.28314V11.4157L53.6445 11.4691C53.6169 11.7321 53.388 11.9374 53.1098 11.9374C52.813 11.9374 52.5724 11.7038 52.5724 11.4157Z" fill="#17223B"/>
<path d="M36.1143 1.19914C36.5076 0.493956 37.4301 0.20334 38.1749 0.550022C38.9197 0.896749 39.2046 1.74957 38.8113 2.45477L34.0691 10.9583C33.7834 11.4707 33.2183 11.764 32.6449 11.7531C32.0715 11.7639 31.5065 11.4706 31.2208 10.9583L26.4786 2.45477C26.0853 1.74957 26.3703 0.896749 27.1151 0.550022C27.8598 0.203324 28.7823 0.493952 29.1756 1.19914L32.6449 7.42026L36.1143 1.19914Z" fill="#17223B"/>
<path d="M68.4252 5.94782C68.4252 3.23922 66.1636 1.04348 63.3738 1.04348C60.584 1.04348 58.3224 3.23922 58.3224 5.94782C58.3224 8.65641 60.584 10.8522 63.3738 10.8522V11.8956C59.9904 11.8956 57.2477 9.2327 57.2477 5.94782C57.2477 2.66293 59.9904 0 63.3738 0C66.7572 0 69.5 2.66293 69.5 5.94782C69.5 9.2327 66.7572 11.8956 63.3738 11.8956V10.8522C66.1636 10.8522 68.4252 8.65641 68.4252 5.94782Z" fill="#17223B"/>
<path d="M23.0806 8.76521C23.9058 8.76522 24.5748 9.41471 24.5748 10.2159V10.2988C24.5747 11.0542 23.9439 11.6666 23.1658 11.6666C18.3336 11.6666 16.4628 11.8238 15.3624 11.2638C14.4692 10.8093 14.0421 9.70399 14.0421 8.76521H14.0475V7.51304H14.0421V4.59131H14.0475V3.33913H14.0421C14.0421 2.40033 14.4692 1.29483 15.3624 0.840292C16.4628 0.280373 18.3336 0.437778 23.1658 0.437779C23.9439 0.437779 24.5747 1.05007 24.5748 1.80551V1.88846C24.5747 2.68961 23.9058 3.33912 23.0806 3.33913H17.0569V4.59131H22.6402C23.4712 4.59131 24.1449 5.24536 24.1449 6.05217C24.1448 6.85897 23.4712 7.51304 22.6402 7.51304H17.0569V8.76521H23.0806Z" fill="#17223B"/>
</svg>
